<svg xmlns="http://www.w3.org/2000/svg" xmlns:xlink="http://www.w3.org/1999/xlink" x="0" y="0" version="1.1" viewBox="0 0 1178.63 409.31" xml:space="preserve" style="enable-background:new 0 0 1178.63 409.31"><style type="text/css"/><g id="Layer_1_copy"><g><path d="M204.66,0C91.63,0,0,91.63,0,204.66c0,113.03,91.63,204.66,204.66,204.66c113.03,0,204.66-91.63,204.66-204.66 C409.31,91.63,317.68,0,204.66,0z M261.31,292.65c-18.41,0-35.5-5.66-49.63-15.33c7.38-6.47,13.77-14.05,18.91-22.47 c8.94,5.48,19.47,8.65,30.73,8.65c32.5,0,58.85-26.35,58.85-58.85c0-32.5-26.35-58.85-58.85-58.85 c-15.52,0-29.63,6.01-40.15,15.83v12.98c0.09-0.12,0.17-0.24,0.26-0.35v78.9c-0.09,0.13-0.18,0.25-0.26,0.38v0.33h-0.22 c-15.81,23.39-42.57,38.78-72.94,38.78c-48.6,0-87.99-39.4-87.99-87.99s39.4-87.99,87.99-87.99c18.41,0,35.5,5.66,49.63,15.33 c-7.38,6.47-13.77,14.05-18.9,22.46c-8.94-5.48-19.47-8.65-30.73-8.65c-32.5,0-58.85,26.35-58.85,58.85 c0,32.5,26.35,58.85,58.85,58.85c17.51,0,33.24-7.65,44.02-19.8v-14.99v-78.1v-0.2c16.11-20.55,41.16-33.75,69.29-33.75 c48.6,0,88,39.4,88,87.99S309.91,292.65,261.31,292.65z"/><path d="M471.55,206.98c4.36,4.74,9.65,8.3,15.88,10.69c6.22,2.39,13.2,3.58,20.94,3.58c3.95,0,7.63-0.32,11.03-0.96 c3.4-0.64,6.43-1.44,9.08-2.4c2.64-0.96,4.88-1.96,6.71-3.01c1.83-1.05,3.07-1.91,3.71-2.57c0.64-0.67,1.1-1.27,1.4-1.79 c0.29-0.52,0.52-1.15,0.7-1.88c0.18-0.72,0.31-1.6,0.39-2.62c0.09-1.02,0.13-2.25,0.13-3.71c0-2.09-0.06-3.77-0.18-5.02 c-0.12-1.25-0.29-2.22-0.52-2.92c-0.23-0.7-0.52-1.16-0.87-1.4c-0.35-0.23-0.81-0.35-1.39-0.35c-0.76,0-1.82,0.47-3.18,1.4 c-1.37,0.93-3.11,1.98-5.23,3.14c-2.12,1.16-4.67,2.22-7.64,3.19c-2.97,0.96-6.48,1.44-10.55,1.44c-4.48,0-8.51-0.77-12.09-2.31 c-3.57-1.54-6.63-3.88-9.16-7.02c-2.53-3.14-4.48-7.14-5.85-12c-1.37-4.86-2.05-10.6-2.05-17.23c0-6.05,0.64-11.49,1.92-16.31 c1.28-4.83,3.15-8.94,5.63-12.34c2.47-3.4,5.47-6.02,8.99-7.85c3.52-1.83,7.51-2.75,11.99-2.75c4.07,0,7.58,0.51,10.51,1.52 c2.94,1.02,5.47,2.15,7.59,3.4c2.12,1.25,3.85,2.39,5.19,3.4c1.34,1.02,2.44,1.53,3.32,1.53c0.52,0,0.99-0.18,1.39-0.52 c0.41-0.35,0.76-0.9,1.05-1.66c0.29-0.76,0.49-1.74,0.61-2.97c0.11-1.22,0.18-2.7,0.18-4.45c0-1.63-0.04-3-0.13-4.1 c-0.09-1.1-0.22-2.06-0.39-2.88c-0.18-0.81-0.41-1.48-0.7-2c-0.29-0.52-0.83-1.18-1.61-1.96c-0.78-0.79-2.17-1.73-4.14-2.84 c-1.98-1.1-4.2-2.08-6.68-2.92c-2.47-0.84-5.16-1.52-8.07-2.05c-2.91-0.52-5.93-0.79-9.07-0.79c-7.74,0-14.82,1.31-21.24,3.93 c-6.43,2.62-11.94,6.46-16.53,11.52c-4.6,5.06-8.17,11.31-10.73,18.76c-2.56,7.45-3.84,15.96-3.84,25.56 c0,9.42,1.16,17.68,3.49,24.78C463.85,196.33,467.19,202.25,471.55,206.98z"/><path d="M560.45,218.98c0.87,0.29,2.05,0.52,3.54,0.7c1.48,0.17,3.32,0.26,5.54,0.26c2.27,0,4.13-0.09,5.58-0.26 c1.45-0.17,2.62-0.41,3.49-0.7c0.87-0.29,1.49-0.67,1.83-1.13c0.35-0.47,0.52-0.99,0.52-1.57v-45.63h42.23v45.63 c0,0.58,0.19,1.11,0.56,1.57c0.38,0.47,0.99,0.84,1.84,1.13c0.84,0.29,2,0.52,3.49,0.7c1.48,0.17,3.36,0.26,5.63,0.26 c2.21,0,4.04-0.09,5.5-0.26c1.46-0.17,2.62-0.41,3.49-0.7c0.87-0.29,1.49-0.67,1.87-1.13c0.38-0.47,0.57-0.99,0.57-1.57V109.67 c0-0.58-0.19-1.1-0.57-1.57c-0.38-0.47-1-0.84-1.87-1.14c-0.87-0.29-2.04-0.52-3.49-0.7c-1.45-0.18-3.28-0.26-5.5-0.26 c-2.27,0-4.14,0.09-5.63,0.26c-1.48,0.17-2.65,0.41-3.49,0.7c-0.85,0.29-1.46,0.67-1.84,1.14c-0.38,0.47-0.56,0.99-0.56,1.57 v41.44h-42.23v-41.44c0-0.58-0.18-1.1-0.52-1.57c-0.35-0.47-0.96-0.84-1.83-1.14c-0.87-0.29-2.04-0.52-3.49-0.7 c-1.46-0.18-3.32-0.26-5.58-0.26c-2.22,0-4.06,0.09-5.54,0.26c-1.49,0.17-2.66,0.41-3.54,0.7c-0.87,0.29-1.5,0.67-1.87,1.14 c-0.38,0.47-0.57,0.99-0.57,1.57v106.61c0,0.58,0.19,1.11,0.57,1.57C558.96,218.31,559.58,218.69,560.45,218.98z"/><path d="M677.53,219.41h56.71c0.52,0,1-0.16,1.44-0.48c0.44-0.32,0.8-0.83,1.09-1.52c0.29-0.7,0.51-1.61,0.66-2.75 c0.14-1.13,0.22-2.54,0.22-4.23c0-1.69-0.07-3.1-0.22-4.23c-0.15-1.14-0.36-2.05-0.66-2.75c-0.29-0.7-0.65-1.21-1.09-1.53 c-0.44-0.32-0.92-0.48-1.44-0.48h-40.66V169.6h34.11c0.52,0,1.01-0.14,1.44-0.44c0.44-0.29,0.8-0.77,1.09-1.44 c0.29-0.67,0.51-1.56,0.66-2.66c0.14-1.1,0.22-2.5,0.22-4.19c0-1.63-0.07-3.01-0.22-4.15c-0.14-1.13-0.36-2.03-0.66-2.7 c-0.29-0.67-0.65-1.16-1.09-1.49c-0.43-0.32-0.91-0.48-1.44-0.48h-34.11V124.5h40.31c0.52,0,0.99-0.16,1.4-0.48 c0.41-0.32,0.76-0.83,1.04-1.53c0.29-0.7,0.51-1.61,0.66-2.75c0.14-1.14,0.22-2.52,0.22-4.14c0-1.75-0.07-3.19-0.22-4.32 c-0.15-1.13-0.36-2.06-0.66-2.79c-0.29-0.73-0.64-1.24-1.04-1.53c-0.41-0.29-0.87-0.44-1.4-0.44h-56.36 c-1.92,0-3.53,0.57-4.84,1.7c-1.31,1.13-1.97,2.98-1.97,5.54v98.41c0,2.56,0.66,4.4,1.97,5.54 C673.99,218.85,675.61,219.41,677.53,219.41z"/><path d="M763.37,206.98c4.36,4.74,9.65,8.3,15.88,10.69c6.22,2.39,13.2,3.58,20.94,3.58c3.95,0,7.63-0.32,11.04-0.96 c3.4-0.64,6.43-1.44,9.07-2.4c2.65-0.96,4.88-1.96,6.71-3.01c1.84-1.05,3.07-1.91,3.71-2.57c0.64-0.67,1.1-1.27,1.4-1.79 c0.29-0.52,0.52-1.15,0.7-1.88c0.18-0.72,0.31-1.6,0.39-2.62c0.09-1.02,0.13-2.25,0.13-3.71c0-2.09-0.06-3.77-0.17-5.02 c-0.11-1.25-0.29-2.22-0.52-2.92c-0.23-0.7-0.52-1.16-0.88-1.4c-0.35-0.23-0.81-0.35-1.39-0.35c-0.76,0-1.82,0.47-3.18,1.4 c-1.37,0.93-3.11,1.98-5.23,3.14c-2.12,1.16-4.67,2.22-7.64,3.19c-2.96,0.96-6.48,1.44-10.55,1.44c-4.48,0-8.51-0.77-12.08-2.31 c-3.58-1.54-6.63-3.88-9.16-7.02s-4.48-7.14-5.84-12c-1.37-4.86-2.05-10.6-2.05-17.23c0-6.05,0.64-11.49,1.92-16.31 c1.28-4.83,3.15-8.94,5.63-12.34c2.47-3.4,5.47-6.02,8.99-7.85c3.52-1.83,7.51-2.75,11.99-2.75c4.07,0,7.58,0.51,10.51,1.52 c2.93,1.02,5.46,2.15,7.59,3.4c2.12,1.25,3.85,2.39,5.19,3.4c1.34,1.02,2.44,1.53,3.31,1.53c0.52,0,0.99-0.18,1.4-0.52 c0.41-0.35,0.76-0.9,1.05-1.66c0.29-0.76,0.49-1.74,0.61-2.97c0.11-1.22,0.18-2.7,0.18-4.45c0-1.63-0.04-3-0.13-4.1 c-0.09-1.1-0.22-2.06-0.39-2.88c-0.18-0.81-0.41-1.48-0.7-2c-0.29-0.52-0.83-1.18-1.61-1.96c-0.78-0.79-2.17-1.73-4.14-2.84 c-1.98-1.1-4.2-2.08-6.67-2.92c-2.47-0.84-5.16-1.52-8.07-2.05c-2.91-0.52-5.93-0.79-9.07-0.79c-7.74,0-14.82,1.31-21.24,3.93 c-6.43,2.62-11.94,6.46-16.53,11.52c-4.6,5.06-8.17,11.31-10.73,18.76c-2.56,7.45-3.84,15.96-3.84,25.56 c0,9.42,1.16,17.68,3.49,24.78C755.66,196.33,759.01,202.25,763.37,206.98z"/><path d="M852.27,218.93c0.87,0.32,2.05,0.57,3.53,0.74c1.48,0.17,3.33,0.26,5.54,0.26c2.27,0,4.13-0.09,5.58-0.26 c1.46-0.17,2.62-0.42,3.49-0.74c0.87-0.32,1.49-0.71,1.84-1.18c0.35-0.46,0.52-1.02,0.52-1.66v-53.56l34.11,53.56 c0.41,0.82,0.97,1.51,1.7,2.1c0.72,0.58,1.92,1.02,3.58,1.31c1.66,0.29,4.38,0.44,8.16,0.44c2.39,0,4.36-0.09,5.93-0.26 c1.57-0.17,2.81-0.42,3.71-0.74c0.9-0.32,1.51-0.72,1.83-1.22c0.32-0.49,0.48-1.06,0.48-1.7c0-0.47-0.13-1.09-0.39-1.87 c-0.26-0.79-1.03-2.37-2.31-4.76l-33.76-51.03l30.97-40.57c1.46-2.27,2.44-3.93,2.97-4.97c0.52-1.05,0.79-2.06,0.79-3.05 c0-0.58-0.18-1.1-0.52-1.57c-0.35-0.46-0.97-0.86-1.87-1.18c-0.9-0.32-2.11-0.57-3.62-0.74c-1.51-0.18-3.43-0.26-5.76-0.26 c-2.27,0-4.13,0.06-5.58,0.17c-1.46,0.12-2.65,0.32-3.58,0.61c-0.93,0.29-1.69,0.69-2.27,1.18c-0.58,0.49-1.07,1.12-1.48,1.87 l-33.06,47.98v-48.07c0-0.64-0.18-1.19-0.52-1.66c-0.35-0.47-0.96-0.84-1.84-1.14c-0.87-0.29-2.03-0.52-3.49-0.7 c-1.46-0.18-3.32-0.26-5.58-0.26c-2.21,0-4.06,0.09-5.54,0.26c-1.49,0.17-2.66,0.41-3.53,0.7c-0.87,0.29-1.5,0.67-1.87,1.14 c-0.38,0.47-0.57,1.02-0.57,1.66V216.1c0,0.64,0.19,1.19,0.57,1.66C850.77,218.22,851.4,218.62,852.27,218.93z"/><path d="M994.73,219.41h26.96c10,0,18.62-1.09,25.87-3.27c7.24-2.18,13.39-5.6,18.45-10.25c5.06-4.65,8.94-10.66,11.64-18.02 c2.71-7.36,4.06-16.21,4.06-26.56c0-8.96-1.25-16.84-3.75-23.64c-2.5-6.81-6.15-12.52-10.95-17.14 c-4.8-4.62-10.7-8.11-17.71-10.47c-7.01-2.35-15.54-3.53-25.6-3.53h-28.97c-1.92,0-3.53,0.57-4.84,1.7 c-1.31,1.13-1.96,2.98-1.96,5.54v98.41c0,2.56,0.65,4.4,1.96,5.54C991.2,218.85,992.81,219.41,994.73,219.41z M1010.78,124.5h11.6 c7.04,0,12.72,0.95,17.06,2.84c4.33,1.89,7.88,4.52,10.65,7.89c2.76,3.37,4.77,7.36,6.02,11.95c1.25,4.6,1.87,9.57,1.87,14.92 c0,6.51-0.71,12.22-2.14,17.1c-1.43,4.89-3.58,8.97-6.46,12.26c-2.88,3.29-6.47,5.75-10.77,7.37c-4.31,1.63-9.6,2.44-15.88,2.44 h-11.95V124.5z"/><path d="M1178.46,197.3c-0.11-1.25-0.29-2.22-0.52-2.92c-0.23-0.7-0.52-1.16-0.87-1.4c-0.35-0.23-0.82-0.35-1.39-0.35 c-0.76,0-1.82,0.47-3.18,1.4c-1.37,0.93-3.11,1.98-5.23,3.14c-2.12,1.16-4.67,2.22-7.64,3.19c-2.96,0.96-6.48,1.44-10.56,1.44 c-4.48,0-8.51-0.77-12.08-2.31c-3.58-1.54-6.63-3.88-9.16-7.02s-4.48-7.14-5.84-12c-1.37-4.86-2.05-10.6-2.05-17.23 c0-6.05,0.64-11.49,1.92-16.31c1.28-4.83,3.15-8.94,5.63-12.34c2.47-3.4,5.47-6.02,8.99-7.85c3.52-1.83,7.51-2.75,11.99-2.75 c4.07,0,7.58,0.51,10.51,1.52c2.93,1.02,5.46,2.15,7.59,3.4c2.12,1.25,3.85,2.39,5.19,3.4c1.34,1.02,2.44,1.53,3.31,1.53 c0.52,0,0.99-0.18,1.4-0.52c0.41-0.35,0.76-0.9,1.05-1.66c0.29-0.76,0.49-1.74,0.61-2.97c0.11-1.22,0.17-2.7,0.17-4.45 c0-1.63-0.04-3-0.13-4.1c-0.09-1.1-0.22-2.06-0.39-2.88c-0.18-0.81-0.41-1.48-0.7-2c-0.29-0.52-0.83-1.18-1.61-1.96 c-0.79-0.79-2.17-1.73-4.15-2.84c-1.98-1.1-4.2-2.08-6.67-2.92c-2.47-0.84-5.16-1.52-8.07-2.05c-2.91-0.52-5.93-0.79-9.07-0.79 c-7.74,0-14.82,1.31-21.24,3.93c-6.43,2.62-11.94,6.46-16.53,11.52c-4.59,5.06-8.17,11.31-10.73,18.76 c-2.56,7.45-3.84,15.96-3.84,25.56c0,9.42,1.16,17.68,3.49,24.78c2.33,7.1,5.67,13.02,10.04,17.75c4.36,4.74,9.65,8.3,15.88,10.69 c6.22,2.39,13.2,3.58,20.94,3.58c3.95,0,7.63-0.32,11.04-0.96c3.4-0.64,6.42-1.44,9.07-2.4c2.65-0.96,4.88-1.96,6.72-3.01 c1.83-1.05,3.07-1.91,3.71-2.57c0.64-0.67,1.1-1.27,1.4-1.79c0.29-0.52,0.52-1.15,0.7-1.88c0.17-0.72,0.31-1.6,0.39-2.62 c0.09-1.02,0.13-2.25,0.13-3.71C1178.63,200.22,1178.58,198.55,1178.46,197.3z"/><rect width="692.1" height="3.01" x="451.14" y="248.67"/><path d="M478.92,299.49c-1.06-1.02-2.27-1.92-3.62-2.67c-1.35-0.75-2.72-1.46-4.12-2.11c-1.4-0.66-2.77-1.31-4.12-1.97 c-1.35-0.66-2.55-1.39-3.62-2.21s-1.92-1.75-2.56-2.82c-0.64-1.06-0.97-2.34-0.97-3.82c0-1.01,0.18-1.98,0.54-2.89 c0.36-0.92,0.9-1.71,1.62-2.39c0.72-0.68,1.62-1.22,2.71-1.61c1.09-0.39,2.36-0.59,3.82-0.59c1.49,0,2.81,0.18,3.97,0.54 c1.16,0.36,2.16,0.76,3,1.21c0.84,0.45,1.54,0.85,2.1,1.21c0.56,0.36,0.97,0.54,1.24,0.54c0.15,0,0.28-0.05,0.39-0.15 c0.11-0.1,0.21-0.24,0.28-0.43c0.08-0.19,0.13-0.41,0.17-0.67c0.04-0.26,0.05-0.55,0.05-0.87c0-0.34-0.01-0.64-0.04-0.87 c-0.02-0.24-0.06-0.44-0.11-0.61c-0.05-0.17-0.11-0.31-0.17-0.43c-0.06-0.11-0.21-0.29-0.44-0.52c-0.24-0.24-0.72-0.54-1.45-0.93 c-0.73-0.38-1.56-0.73-2.49-1.04c-0.93-0.31-1.91-0.56-2.95-0.76c-1.04-0.2-2.07-0.3-3.08-0.3c-2.03,0-3.89,0.27-5.58,0.82 c-1.7,0.54-3.15,1.33-4.36,2.35c-1.21,1.03-2.15,2.27-2.82,3.75c-0.67,1.47-1,3.13-1,4.99c0,1.91,0.32,3.55,0.97,4.93 c0.64,1.39,1.49,2.59,2.54,3.62c1.05,1.03,2.24,1.92,3.58,2.69c1.34,0.77,2.7,1.48,4.1,2.13c1.39,0.66,2.76,1.31,4.1,1.97 c1.34,0.66,2.53,1.39,3.58,2.19c1.05,0.8,1.9,1.74,2.54,2.8c0.64,1.06,0.96,2.34,0.96,3.82c0,1.43-0.25,2.71-0.76,3.84 c-0.51,1.13-1.22,2.07-2.14,2.84c-0.91,0.77-2,1.35-3.26,1.76c-1.26,0.41-2.65,0.61-4.15,0.61c-1.85,0-3.48-0.22-4.88-0.65 c-1.4-0.43-2.6-0.9-3.6-1.41c-1-0.51-1.82-0.98-2.45-1.41c-0.63-0.43-1.12-0.65-1.46-0.65c-0.15,0-0.29,0.03-0.43,0.09 c-0.14,0.06-0.24,0.18-0.33,0.35c-0.09,0.18-0.16,0.4-0.2,0.67c-0.05,0.27-0.08,0.62-0.08,1.04c0,0.57,0.06,1.04,0.19,1.43 c0.13,0.39,0.32,0.72,0.59,1c0.28,0.28,0.77,0.63,1.5,1.04c0.73,0.41,1.63,0.81,2.69,1.21c1.06,0.4,2.28,0.74,3.63,1.02 c1.36,0.28,2.8,0.42,4.34,0.42c2.25,0,4.33-0.31,6.23-0.93c1.91-0.62,3.55-1.51,4.93-2.69c1.38-1.17,2.46-2.6,3.23-4.28 c0.77-1.68,1.15-3.59,1.15-5.71c0-1.88-0.32-3.51-0.96-4.88C480.84,301.72,479.99,300.52,478.92,299.49z"/><path d="M506.78,289.61c0.32,0,0.59-0.16,0.8-0.46c0.21-0.31,0.32-0.77,0.32-1.39c0-0.32-0.02-0.6-0.07-0.83 c-0.05-0.24-0.12-0.43-0.22-0.59c-0.1-0.16-0.22-0.28-0.35-0.35c-0.14-0.08-0.29-0.11-0.46-0.11h-9.27v-8.24 c0-0.15-0.04-0.28-0.11-0.41c-0.07-0.12-0.19-0.23-0.36-0.31c-0.16-0.09-0.38-0.15-0.67-0.19c-0.28-0.04-0.65-0.06-1.09-0.06 c-0.42,0-0.78,0.02-1.06,0.06c-0.28,0.04-0.51,0.1-0.69,0.19c-0.17,0.09-0.29,0.19-0.35,0.31c-0.06,0.13-0.09,0.26-0.09,0.41v8.24 h-5.01c-0.17,0-0.33,0.04-0.46,0.11c-0.14,0.07-0.25,0.19-0.35,0.35c-0.1,0.16-0.18,0.36-0.22,0.59 c-0.05,0.23-0.08,0.51-0.08,0.83c0,0.62,0.1,1.08,0.3,1.39c0.2,0.31,0.47,0.46,0.81,0.46h5.01v20.88c0,1.88,0.17,3.51,0.5,4.9 c0.34,1.39,0.87,2.53,1.61,3.43c0.74,0.9,1.69,1.58,2.86,2.02c1.16,0.44,2.57,0.67,4.23,0.67c0.49,0,1-0.03,1.52-0.09 c0.52-0.06,1.01-0.15,1.48-0.26c0.47-0.11,0.88-0.25,1.24-0.41c0.36-0.16,0.63-0.34,0.81-0.52c0.19-0.19,0.32-0.44,0.41-0.76 c0.09-0.32,0.13-0.74,0.13-1.26c0-0.32-0.02-0.59-0.06-0.8c-0.04-0.21-0.09-0.38-0.15-0.52c-0.06-0.14-0.14-0.23-0.24-0.28 c-0.1-0.05-0.21-0.07-0.34-0.07c-0.19,0-0.43,0.06-0.69,0.19c-0.26,0.12-0.57,0.26-0.94,0.41c-0.37,0.15-0.8,0.29-1.28,0.41 c-0.48,0.13-1.02,0.19-1.61,0.19c-1.93,0-3.26-0.67-3.99-2c-0.73-1.34-1.1-3.28-1.1-5.83v-20.29H506.78z"/><path d="M536.44,288.49c-0.98-1.04-2.26-1.84-3.84-2.39c-1.58-0.56-3.52-0.84-5.82-0.84c-1.19,0-2.37,0.11-3.56,0.33 c-1.19,0.22-2.29,0.51-3.32,0.87c-1.02,0.36-1.94,0.75-2.72,1.17c-0.79,0.42-1.34,0.79-1.65,1.09c-0.31,0.31-0.5,0.62-0.57,0.93 c-0.07,0.31-0.11,0.72-0.11,1.24c0,0.29,0.02,0.55,0.06,0.76c0.04,0.21,0.1,0.39,0.19,0.52c0.09,0.14,0.19,0.23,0.31,0.28 c0.12,0.05,0.26,0.07,0.41,0.07c0.25,0,0.66-0.18,1.24-0.54c0.58-0.36,1.32-0.76,2.21-1.21c0.89-0.45,1.93-0.85,3.11-1.21 c1.19-0.36,2.52-0.54,4.01-0.54c1.53,0,2.83,0.18,3.9,0.56c1.06,0.37,1.93,0.93,2.6,1.67c0.67,0.74,1.15,1.66,1.45,2.76 c0.3,1.1,0.45,2.37,0.45,3.8v2.89h-5.35c-2.42,0-4.62,0.23-6.6,0.69c-1.98,0.46-3.67,1.14-5.08,2.06 c-1.41,0.92-2.5,2.06-3.26,3.43s-1.15,2.99-1.15,4.84c0,1.51,0.26,2.87,0.78,4.08c0.52,1.21,1.26,2.24,2.23,3.1 c0.96,0.86,2.14,1.51,3.54,1.97c1.4,0.46,2.98,0.69,4.73,0.69c1.95,0,3.84-0.44,5.66-1.34c1.82-0.89,3.48-2.15,4.99-3.78v3.75 c0,0.25,0.08,0.44,0.24,0.57c0.16,0.14,0.39,0.24,0.69,0.3c0.3,0.06,0.66,0.09,1.08,0.09c0.44,0,0.8-0.03,1.06-0.09 c0.26-0.06,0.47-0.16,0.63-0.3c0.16-0.14,0.24-0.33,0.24-0.57v-22.7c0-1.93-0.21-3.65-0.63-5.17S537.42,289.53,536.44,288.49z M534.76,312.27c-1.71,1.88-3.32,3.27-4.84,4.17c-1.52,0.9-3.16,1.35-4.92,1.35c-2.23,0-3.95-0.57-5.18-1.72 c-1.22-1.15-1.84-2.69-1.84-4.62c0-1.11,0.22-2.1,0.65-2.97c0.43-0.87,1.09-1.61,1.99-2.23c0.89-0.62,2-1.09,3.34-1.41 c1.33-0.32,2.89-0.48,4.67-0.48h6.12V312.27z"/><path d="M569.94,286.88c-0.04-0.14-0.08-0.25-0.13-0.33c-0.05-0.09-0.14-0.19-0.29-0.3c-0.15-0.11-0.41-0.24-0.8-0.37 c-0.39-0.14-0.82-0.26-1.3-0.35c-0.48-0.1-0.93-0.17-1.35-0.21s-0.79-0.06-1.11-0.06c-0.74,0-1.46,0.09-2.17,0.26 c-0.71,0.17-1.43,0.5-2.17,0.98c-0.74,0.48-1.52,1.16-2.34,2.02c-0.82,0.87-1.71,2-2.67,3.42v-5.31c0-0.15-0.03-0.28-0.09-0.41 c-0.06-0.12-0.17-0.23-0.31-0.31c-0.15-0.09-0.36-0.15-0.63-0.19c-0.27-0.04-0.62-0.06-1.04-0.06c-0.42,0-0.76,0.02-1.02,0.06 c-0.26,0.04-0.47,0.1-0.65,0.19c-0.17,0.09-0.29,0.19-0.35,0.31c-0.06,0.13-0.09,0.26-0.09,0.41v33.57c0,0.15,0.03,0.29,0.09,0.41 c0.06,0.13,0.18,0.22,0.35,0.3c0.18,0.07,0.4,0.14,0.69,0.19c0.28,0.05,0.64,0.07,1.06,0.07c0.44,0,0.81-0.02,1.09-0.07 c0.29-0.05,0.51-0.11,0.67-0.19c0.16-0.08,0.28-0.17,0.35-0.3c0.07-0.12,0.11-0.26,0.11-0.41v-22.7c0.94-1.51,1.8-2.78,2.58-3.82 c0.78-1.04,1.52-1.87,2.22-2.5c0.71-0.63,1.38-1.09,2.02-1.37c0.64-0.29,1.3-0.43,1.97-0.43c0.57,0,1.09,0.06,1.56,0.17 c0.47,0.11,0.9,0.23,1.3,0.35c0.4,0.13,0.74,0.24,1.04,0.35c0.29,0.11,0.56,0.17,0.78,0.17c0.15,0,0.27-0.04,0.35-0.13 c0.09-0.09,0.16-0.21,0.22-0.37c0.06-0.16,0.11-0.37,0.13-0.63c0.02-0.26,0.04-0.57,0.04-0.94c0-0.37-0.01-0.67-0.02-0.91 C570,287.2,569.98,287.01,569.94,286.88z"/><path d="M592.66,289.61c0.32,0,0.59-0.16,0.79-0.46c0.21-0.31,0.32-0.77,0.32-1.39c0-0.32-0.03-0.6-0.08-0.83 c-0.05-0.24-0.12-0.43-0.22-0.59c-0.1-0.16-0.21-0.28-0.35-0.35c-0.14-0.08-0.29-0.11-0.46-0.11h-9.27v-8.24 c0-0.15-0.04-0.28-0.11-0.41c-0.07-0.12-0.19-0.23-0.35-0.31c-0.16-0.09-0.38-0.15-0.67-0.19c-0.28-0.04-0.65-0.06-1.09-0.06 c-0.42,0-0.77,0.02-1.06,0.06c-0.29,0.04-0.51,0.1-0.69,0.19c-0.17,0.09-0.29,0.19-0.35,0.31c-0.06,0.13-0.09,0.26-0.09,0.41v8.24 h-5.01c-0.17,0-0.33,0.04-0.46,0.11c-0.14,0.07-0.26,0.19-0.35,0.35c-0.1,0.16-0.18,0.36-0.22,0.59 c-0.05,0.23-0.07,0.51-0.07,0.83c0,0.62,0.1,1.08,0.3,1.39c0.2,0.31,0.47,0.46,0.82,0.46h5.01v20.88c0,1.88,0.17,3.51,0.5,4.9 c0.34,1.39,0.87,2.53,1.61,3.43c0.74,0.9,1.7,1.58,2.86,2.02c1.16,0.44,2.57,0.67,4.23,0.67c0.49,0,1-0.03,1.52-0.09 c0.52-0.06,1.01-0.15,1.48-0.26c0.47-0.11,0.89-0.25,1.24-0.41c0.36-0.16,0.63-0.34,0.81-0.52c0.19-0.19,0.32-0.44,0.41-0.76 c0.09-0.32,0.13-0.74,0.13-1.26c0-0.32-0.02-0.59-0.06-0.8c-0.04-0.21-0.09-0.38-0.15-0.52c-0.06-0.14-0.14-0.23-0.24-0.28 c-0.1-0.05-0.21-0.07-0.33-0.07c-0.2,0-0.43,0.06-0.69,0.19c-0.26,0.12-0.57,0.26-0.94,0.41c-0.37,0.15-0.8,0.29-1.28,0.41 c-0.48,0.13-1.02,0.19-1.62,0.19c-1.93,0-3.26-0.67-3.99-2c-0.73-1.34-1.09-3.28-1.09-5.83v-20.29H592.66z"/><path d="M641.33,299.49c-1.06-1.02-2.27-1.92-3.62-2.67c-1.35-0.75-2.72-1.46-4.12-2.11c-1.4-0.66-2.77-1.31-4.12-1.97 c-1.35-0.66-2.55-1.39-3.62-2.21s-1.92-1.75-2.56-2.82c-0.64-1.06-0.97-2.34-0.97-3.82c0-1.01,0.18-1.98,0.54-2.89 c0.36-0.92,0.9-1.71,1.61-2.39c0.72-0.68,1.62-1.22,2.71-1.61c1.09-0.39,2.36-0.59,3.82-0.59c1.49,0,2.81,0.18,3.97,0.54 c1.16,0.36,2.16,0.76,3,1.21c0.84,0.45,1.54,0.85,2.1,1.21c0.56,0.36,0.97,0.54,1.24,0.54c0.15,0,0.28-0.05,0.39-0.15 c0.11-0.1,0.21-0.24,0.28-0.43c0.07-0.19,0.13-0.41,0.17-0.67c0.04-0.26,0.05-0.55,0.05-0.87c0-0.34-0.01-0.64-0.04-0.87 c-0.02-0.24-0.06-0.44-0.11-0.61c-0.05-0.17-0.11-0.31-0.17-0.43c-0.06-0.11-0.21-0.29-0.44-0.52c-0.24-0.24-0.72-0.54-1.45-0.93 c-0.73-0.38-1.56-0.73-2.49-1.04c-0.93-0.31-1.91-0.56-2.95-0.76c-1.04-0.2-2.07-0.3-3.08-0.3c-2.03,0-3.89,0.27-5.58,0.82 c-1.69,0.54-3.15,1.33-4.36,2.35c-1.21,1.03-2.15,2.27-2.82,3.75c-0.67,1.47-1,3.13-1,4.99c0,1.91,0.32,3.55,0.97,4.93 c0.64,1.39,1.49,2.59,2.54,3.62c1.05,1.03,2.24,1.92,3.58,2.69c1.34,0.77,2.7,1.48,4.1,2.13c1.4,0.66,2.77,1.31,4.1,1.97 c1.34,0.66,2.53,1.39,3.58,2.19c1.05,0.8,1.9,1.74,2.54,2.8c0.64,1.06,0.96,2.34,0.96,3.82c0,1.43-0.25,2.71-0.76,3.84 c-0.51,1.13-1.22,2.07-2.14,2.84c-0.91,0.77-2,1.35-3.27,1.76c-1.26,0.41-2.64,0.61-4.15,0.61c-1.85,0-3.48-0.22-4.88-0.65 c-1.4-0.43-2.6-0.9-3.6-1.41c-1-0.51-1.82-0.98-2.45-1.41c-0.63-0.43-1.12-0.65-1.46-0.65c-0.15,0-0.29,0.03-0.43,0.09 c-0.14,0.06-0.25,0.18-0.33,0.35c-0.09,0.18-0.16,0.4-0.2,0.67c-0.05,0.27-0.08,0.62-0.08,1.04c0,0.57,0.06,1.04,0.19,1.43 c0.13,0.39,0.32,0.72,0.59,1c0.27,0.28,0.77,0.63,1.5,1.04c0.73,0.41,1.63,0.81,2.69,1.21c1.06,0.4,2.27,0.74,3.63,1.02 c1.36,0.28,2.8,0.42,4.34,0.42c2.25,0,4.33-0.31,6.23-0.93c1.91-0.62,3.55-1.51,4.93-2.69c1.38-1.17,2.46-2.6,3.23-4.28 c0.77-1.68,1.15-3.59,1.15-5.71c0-1.88-0.32-3.51-0.96-4.88C643.25,301.72,642.39,300.52,641.33,299.49z"/><path d="M679.87,290.03c-1.31-1.55-2.95-2.73-4.92-3.54c-1.97-0.82-4.26-1.22-6.88-1.22c-2.74,0-5.14,0.46-7.2,1.37 c-2.05,0.92-3.77,2.2-5.14,3.84c-1.37,1.64-2.4,3.59-3.08,5.84c-0.68,2.25-1.02,4.71-1.02,7.38c0,2.77,0.33,5.26,0.99,7.46 c0.66,2.2,1.64,4.07,2.97,5.62c1.32,1.55,2.97,2.73,4.93,3.56c1.97,0.83,4.26,1.24,6.88,1.24c2.72,0,5.11-0.46,7.16-1.39 c2.05-0.93,3.77-2.22,5.14-3.88c1.37-1.65,2.4-3.61,3.1-5.86c0.69-2.25,1.04-4.71,1.04-7.38c0-2.74-0.34-5.22-1-7.42 C682.17,293.45,681.18,291.58,679.87,290.03z M678.5,309.12c-0.45,1.73-1.13,3.23-2.06,4.49c-0.93,1.26-2.12,2.25-3.58,2.97 c-1.46,0.72-3.19,1.07-5.2,1.07c-2.18,0-3.99-0.38-5.45-1.15c-1.46-0.77-2.62-1.8-3.49-3.12c-0.86-1.31-1.48-2.84-1.85-4.58 c-0.37-1.74-0.56-3.58-0.56-5.51c0-2,0.22-3.87,0.67-5.6c0.44-1.73,1.13-3.23,2.06-4.51c0.93-1.27,2.12-2.27,3.58-2.99 c1.46-0.72,3.19-1.08,5.2-1.08c2.18,0,4,0.39,5.45,1.17c1.46,0.78,2.62,1.83,3.48,3.15c0.87,1.32,1.48,2.85,1.85,4.58 c0.37,1.73,0.56,3.55,0.56,5.45C679.16,305.51,678.95,307.39,678.5,309.12z"/><path d="M739.13,289.38c-0.88-1.26-2.04-2.26-3.49-3c-1.45-0.74-3.22-1.11-5.32-1.11c-0.84,0-1.69,0.12-2.56,0.35 c-0.87,0.24-1.76,0.62-2.69,1.15c-0.93,0.53-1.91,1.24-2.93,2.11c-1.02,0.88-2.12,1.96-3.28,3.25c-0.37-1.01-0.86-1.94-1.45-2.78 c-0.59-0.84-1.31-1.56-2.15-2.17c-0.84-0.61-1.81-1.07-2.91-1.41c-1.1-0.33-2.35-0.5-3.77-0.5c-1.71,0-3.43,0.48-5.16,1.45 c-1.73,0.96-3.56,2.52-5.49,4.67v-4.75c0-0.15-0.03-0.28-0.09-0.41c-0.06-0.12-0.17-0.23-0.31-0.31 c-0.15-0.09-0.36-0.15-0.63-0.19c-0.27-0.04-0.62-0.06-1.04-0.06c-0.42,0-0.76,0.02-1.02,0.06c-0.26,0.04-0.48,0.1-0.65,0.19 c-0.17,0.09-0.29,0.19-0.35,0.31c-0.06,0.13-0.09,0.26-0.09,0.41v33.57c0,0.15,0.03,0.29,0.09,0.41c0.06,0.13,0.18,0.22,0.35,0.3 c0.17,0.07,0.4,0.14,0.69,0.19c0.28,0.05,0.64,0.07,1.06,0.07c0.45,0,0.81-0.02,1.09-0.07c0.29-0.05,0.51-0.11,0.67-0.19 c0.16-0.08,0.28-0.17,0.35-0.3c0.07-0.12,0.11-0.26,0.11-0.41v-24.08c1.88-2.35,3.62-4.13,5.21-5.34c1.6-1.21,3.17-1.82,4.73-1.82 c1.26,0,2.35,0.25,3.28,0.76c0.93,0.51,1.7,1.22,2.3,2.15c0.61,0.93,1.06,2.04,1.35,3.34c0.3,1.3,0.45,2.74,0.45,4.32v20.66 c0,0.15,0.03,0.29,0.09,0.41c0.06,0.13,0.18,0.22,0.35,0.3c0.17,0.07,0.4,0.14,0.69,0.19c0.28,0.05,0.64,0.07,1.06,0.07 c0.42,0,0.77-0.02,1.06-0.07c0.28-0.05,0.51-0.11,0.67-0.19c0.16-0.08,0.28-0.17,0.35-0.3c0.07-0.12,0.11-0.26,0.11-0.41v-24.08 c1.91-2.35,3.65-4.13,5.25-5.34c1.6-1.21,3.17-1.82,4.73-1.82c1.26,0,2.35,0.25,3.28,0.76c0.93,0.51,1.69,1.22,2.3,2.15 c0.61,0.93,1.05,2.04,1.34,3.34c0.28,1.3,0.43,2.74,0.43,4.32v20.66c0,0.15,0.03,0.29,0.09,0.41c0.06,0.13,0.18,0.22,0.35,0.3 c0.17,0.07,0.4,0.14,0.69,0.19c0.28,0.05,0.65,0.07,1.1,0.07c0.42,0,0.77-0.02,1.06-0.07c0.28-0.05,0.51-0.11,0.67-0.19 c0.16-0.08,0.28-0.17,0.36-0.3c0.07-0.12,0.11-0.26,0.11-0.41v-21.07c0-1.88-0.19-3.66-0.57-5.34 C740.64,292.12,740.01,290.64,739.13,289.38z"/><path d="M777.9,289.92c-1.15-1.42-2.61-2.55-4.4-3.4c-1.78-0.84-3.93-1.26-6.45-1.26c-2.35,0-4.48,0.41-6.4,1.24 c-1.92,0.83-3.56,2.03-4.92,3.6c-1.36,1.57-2.4,3.48-3.13,5.73c-0.73,2.25-1.09,4.8-1.09,7.64c0,2.97,0.35,5.58,1.06,7.83 c0.71,2.25,1.74,4.13,3.1,5.66c1.36,1.52,3.04,2.67,5.05,3.45c2,0.78,4.3,1.17,6.9,1.17c1.58,0,3.06-0.12,4.43-0.37 c1.37-0.25,2.58-0.52,3.62-0.84c1.04-0.31,1.88-0.62,2.52-0.93c0.64-0.31,1.03-0.52,1.15-0.65c0.13-0.12,0.22-0.25,0.3-0.37 c0.07-0.13,0.13-0.26,0.16-0.39c0.04-0.14,0.07-0.29,0.09-0.45c0.03-0.16,0.04-0.33,0.04-0.5c0-0.37-0.02-0.68-0.05-0.93 c-0.04-0.25-0.09-0.45-0.17-0.61c-0.07-0.16-0.17-0.28-0.3-0.35c-0.12-0.07-0.26-0.11-0.41-0.11c-0.25,0-0.66,0.14-1.24,0.41 c-0.58,0.27-1.32,0.58-2.23,0.91c-0.9,0.33-1.97,0.64-3.21,0.91c-1.24,0.27-2.64,0.41-4.19,0.41c-2.2,0-4.05-0.32-5.56-0.96 c-1.51-0.64-2.73-1.56-3.67-2.77c-0.94-1.2-1.61-2.64-2.02-4.32c-0.41-1.68-0.61-3.56-0.61-5.64h22.89c0.45,0,0.9-0.17,1.37-0.5 c0.47-0.33,0.71-0.94,0.71-1.84v-0.89c0-2.08-0.27-4.05-0.8-5.93C779.89,292.99,779.05,291.34,777.9,289.92z M756.25,300.4 c0.07-1.49,0.34-2.91,0.81-4.29c0.47-1.37,1.14-2.58,2.02-3.62c0.88-1.04,1.95-1.87,3.23-2.5c1.27-0.63,2.75-0.94,4.43-0.94 c3.27,0,5.75,1,7.46,3c1.71,2,2.52,4.78,2.45,8.35H756.25z"/><path d="M806.07,289.61c0.32,0,0.59-0.16,0.8-0.46c0.21-0.31,0.32-0.77,0.32-1.39c0-0.32-0.03-0.6-0.08-0.83 c-0.05-0.24-0.12-0.43-0.22-0.59c-0.1-0.16-0.21-0.28-0.35-0.35c-0.14-0.08-0.29-0.11-0.46-0.11h-9.27v-8.24 c0-0.15-0.04-0.28-0.11-0.41c-0.07-0.12-0.19-0.23-0.35-0.31c-0.16-0.09-0.38-0.15-0.67-0.19c-0.28-0.04-0.65-0.06-1.09-0.06 c-0.42,0-0.77,0.02-1.06,0.06c-0.29,0.04-0.51,0.1-0.69,0.19c-0.17,0.09-0.29,0.19-0.36,0.31c-0.06,0.13-0.09,0.26-0.09,0.41v8.24 h-5.01c-0.17,0-0.33,0.04-0.46,0.11c-0.14,0.07-0.26,0.19-0.35,0.35c-0.1,0.16-0.17,0.36-0.22,0.59 c-0.05,0.23-0.07,0.51-0.07,0.83c0,0.62,0.1,1.08,0.3,1.39c0.2,0.31,0.47,0.46,0.82,0.46h5.01v20.88c0,1.88,0.17,3.51,0.5,4.9 c0.33,1.39,0.87,2.53,1.61,3.43c0.74,0.9,1.69,1.58,2.86,2.02c1.16,0.44,2.57,0.67,4.23,0.67c0.49,0,1.01-0.03,1.52-0.09 c0.52-0.06,1.01-0.15,1.48-0.26c0.47-0.11,0.89-0.25,1.24-0.41c0.36-0.16,0.63-0.34,0.82-0.52c0.18-0.19,0.32-0.44,0.41-0.76 c0.09-0.32,0.13-0.74,0.13-1.26c0-0.32-0.02-0.59-0.06-0.8c-0.04-0.21-0.09-0.38-0.15-0.52c-0.06-0.14-0.14-0.23-0.24-0.28 c-0.1-0.05-0.21-0.07-0.34-0.07c-0.2,0-0.43,0.06-0.69,0.19c-0.26,0.12-0.58,0.26-0.95,0.41c-0.37,0.15-0.8,0.29-1.28,0.41 c-0.48,0.13-1.02,0.19-1.61,0.19c-1.93,0-3.26-0.67-3.99-2c-0.73-1.34-1.09-3.28-1.09-5.83v-20.29H806.07z"/><path d="M840.59,289.38c-0.92-1.26-2.15-2.26-3.65-3c-1.51-0.74-3.37-1.11-5.57-1.11c-1.83,0-3.66,0.48-5.49,1.43 c-1.83,0.95-3.66,2.44-5.49,4.47V270.2c0-0.15-0.04-0.28-0.11-0.41c-0.07-0.12-0.19-0.23-0.35-0.31 c-0.16-0.09-0.38-0.15-0.67-0.19c-0.28-0.04-0.65-0.06-1.09-0.06c-0.42,0-0.77,0.02-1.06,0.06c-0.29,0.04-0.51,0.1-0.69,0.19 c-0.17,0.09-0.29,0.19-0.36,0.31c-0.06,0.13-0.09,0.26-0.09,0.41v50.01c0,0.15,0.03,0.29,0.09,0.41c0.06,0.13,0.18,0.22,0.36,0.3 c0.17,0.07,0.4,0.14,0.69,0.19c0.28,0.05,0.64,0.07,1.06,0.07c0.44,0,0.81-0.02,1.09-0.07c0.29-0.05,0.51-0.11,0.67-0.19 c0.16-0.08,0.28-0.17,0.35-0.3c0.07-0.12,0.11-0.26,0.11-0.41v-24.08c1.88-2.35,3.67-4.13,5.38-5.34 c1.71-1.21,3.42-1.82,5.12-1.82c1.34,0,2.5,0.25,3.51,0.76c1,0.51,1.82,1.22,2.46,2.15c0.64,0.93,1.13,2.04,1.45,3.34 c0.32,1.3,0.48,2.99,0.48,5.06v19.92c0,0.15,0.04,0.29,0.11,0.41c0.07,0.13,0.19,0.22,0.35,0.3c0.16,0.07,0.38,0.14,0.67,0.19 c0.28,0.05,0.65,0.07,1.09,0.07c0.42,0,0.77-0.02,1.06-0.07c0.29-0.05,0.51-0.11,0.67-0.19c0.16-0.08,0.28-0.17,0.35-0.3 c0.07-0.12,0.11-0.26,0.11-0.41v-20.33c0-2.37-0.21-4.4-0.61-6.08C842.18,292.12,841.51,290.64,840.59,289.38z"/><path d="M857.67,272.32c-1.11,0-1.88,0.21-2.3,0.63c-0.42,0.42-0.63,1.22-0.63,2.41c0,1.19,0.21,1.99,0.61,2.39 c0.41,0.41,1.15,0.61,2.24,0.61c1.11,0,1.88-0.21,2.3-0.63c0.42-0.42,0.63-1.22,0.63-2.41s-0.21-1.99-0.61-2.39 C859.51,272.52,858.76,272.32,857.67,272.32z"/><path d="M859.39,285.92c-0.16-0.09-0.38-0.15-0.67-0.19c-0.28-0.04-0.65-0.06-1.09-0.06c-0.42,0-0.77,0.02-1.06,0.06 c-0.29,0.04-0.51,0.1-0.69,0.19c-0.17,0.09-0.29,0.19-0.35,0.31c-0.06,0.13-0.09,0.26-0.09,0.41v33.57c0,0.15,0.03,0.29,0.09,0.41 c0.06,0.13,0.18,0.22,0.35,0.3c0.17,0.07,0.4,0.14,0.69,0.19c0.28,0.05,0.64,0.07,1.06,0.07c0.45,0,0.81-0.02,1.09-0.07 c0.28-0.05,0.51-0.11,0.67-0.19c0.16-0.08,0.28-0.17,0.36-0.3c0.07-0.12,0.11-0.26,0.11-0.41v-33.57c0-0.15-0.04-0.28-0.11-0.41 C859.67,286.11,859.56,286,859.39,285.92z"/><path d="M896.83,289.38c-0.93-1.26-2.15-2.26-3.65-3c-1.51-0.74-3.37-1.11-5.57-1.11c-1.83,0-3.67,0.48-5.53,1.45 c-1.85,0.96-3.75,2.52-5.68,4.67v-4.75c0-0.15-0.03-0.28-0.09-0.41c-0.06-0.12-0.17-0.23-0.31-0.31 c-0.15-0.09-0.36-0.15-0.63-0.19c-0.27-0.04-0.62-0.06-1.04-0.06c-0.42,0-0.76,0.02-1.02,0.06c-0.26,0.04-0.48,0.1-0.65,0.19 c-0.17,0.09-0.29,0.19-0.35,0.31c-0.06,0.13-0.09,0.26-0.09,0.41v33.57c0,0.15,0.03,0.29,0.09,0.41c0.06,0.13,0.18,0.22,0.35,0.3 c0.17,0.07,0.4,0.14,0.69,0.19c0.28,0.05,0.64,0.07,1.06,0.07c0.44,0,0.81-0.02,1.09-0.07c0.28-0.05,0.51-0.11,0.67-0.19 c0.16-0.08,0.28-0.17,0.35-0.3c0.08-0.12,0.11-0.26,0.11-0.41v-24.08c1.88-2.35,3.67-4.13,5.38-5.34 c1.71-1.21,3.42-1.82,5.12-1.82c1.34,0,2.5,0.25,3.51,0.76c1,0.51,1.82,1.22,2.46,2.15c0.64,0.93,1.13,2.04,1.45,3.34 c0.32,1.3,0.48,2.99,0.48,5.06v19.92c0,0.15,0.04,0.29,0.11,0.41c0.07,0.13,0.19,0.22,0.35,0.3c0.16,0.07,0.38,0.14,0.67,0.19 c0.28,0.05,0.65,0.07,1.09,0.07c0.42,0,0.77-0.02,1.06-0.07c0.29-0.05,0.51-0.11,0.67-0.19c0.16-0.08,0.28-0.17,0.35-0.3 c0.07-0.12,0.11-0.26,0.11-0.41v-20.33c0-2.37-0.21-4.4-0.61-6.08C898.42,292.12,897.75,290.64,896.83,289.38z"/><path d="M937.39,285.86h-9.9c-0.72-0.17-1.5-0.32-2.35-0.43c-0.86-0.11-1.76-0.17-2.73-0.17c-1.83,0-3.51,0.28-5.05,0.84 c-1.54,0.56-2.85,1.35-3.95,2.39s-1.96,2.31-2.58,3.8c-0.62,1.5-0.93,3.18-0.93,5.06c0,1.56,0.2,2.89,0.6,4.01 c0.39,1.11,0.95,2.14,1.67,3.08c-0.84,0.94-1.56,2-2.15,3.17c-0.59,1.17-0.89,2.53-0.89,4.06c0,1.04,0.3,2.02,0.89,2.93 c0.59,0.92,1.52,1.69,2.78,2.34c-0.79,0.67-1.49,1.32-2.1,1.97c-0.61,0.64-1.11,1.31-1.52,2.01c-0.41,0.69-0.71,1.42-0.91,2.19 c-0.2,0.77-0.3,1.58-0.3,2.45c0,1.26,0.26,2.44,0.8,3.53c0.53,1.09,1.39,2.03,2.56,2.84c1.17,0.8,2.68,1.43,4.53,1.89 c1.84,0.46,4.07,0.69,6.69,0.69c2.75,0,5.11-0.3,7.09-0.91c1.98-0.61,3.6-1.42,4.88-2.45c1.27-1.03,2.21-2.22,2.82-3.58 c0.61-1.36,0.91-2.78,0.91-4.27c0-1.44-0.3-2.68-0.89-3.75c-0.59-1.06-1.4-1.96-2.41-2.69c-1.02-0.73-2.19-1.28-3.54-1.65 c-1.35-0.37-2.79-0.58-4.32-0.63l-9.09-0.37c-1.44-0.05-2.6-0.4-3.51-1.04c-0.9-0.64-1.35-1.44-1.35-2.37 c0-0.84,0.16-1.58,0.48-2.23c0.32-0.64,0.73-1.21,1.22-1.71c0.77,0.62,1.83,1.14,3.19,1.56c1.36,0.42,2.79,0.63,4.3,0.63 c1.85,0,3.55-0.27,5.08-0.82c1.53-0.54,2.86-1.33,3.97-2.35c1.11-1.03,1.97-2.28,2.58-3.77c0.61-1.48,0.91-3.18,0.91-5.08 c0-1.39-0.21-2.7-0.61-3.95c-0.41-1.25-1.13-2.41-2.17-3.47h5.3c0.35,0,0.63-0.14,0.86-0.41c0.22-0.27,0.33-0.76,0.33-1.45 c0-0.62-0.09-1.09-0.28-1.41C938.11,286.02,937.81,285.86,937.39,285.86z M913.22,321.82c0.33-0.58,0.78-1.18,1.35-1.8 c0.57-0.62,1.3-1.27,2.19-1.97l9.76,0.33c2.23,0.07,4,0.54,5.32,1.41c1.32,0.87,1.99,2.12,1.99,3.75c0,0.94-0.19,1.84-0.56,2.71 c-0.37,0.87-0.99,1.63-1.85,2.3c-0.87,0.67-2,1.21-3.4,1.61c-1.4,0.41-3.13,0.61-5.21,0.61c-3.29,0-5.86-0.47-7.7-1.41 c-1.84-0.94-2.76-2.32-2.76-4.15c0-0.57,0.06-1.13,0.19-1.69C912.66,322.97,912.89,322.4,913.22,321.82z M929.82,300.23 c-0.32,1-0.81,1.88-1.45,2.63c-0.64,0.76-1.46,1.36-2.47,1.8c-1,0.44-2.17,0.67-3.5,0.67c-2.52,0-4.48-0.71-5.88-2.13 c-1.4-1.42-2.1-3.37-2.1-5.84c0-1.14,0.16-2.21,0.48-3.23c0.32-1.01,0.8-1.91,1.45-2.67c0.64-0.77,1.46-1.37,2.45-1.82 c0.99-0.44,2.14-0.67,3.45-0.67c2.57,0,4.56,0.72,5.95,2.15c1.4,1.43,2.1,3.42,2.1,5.97C930.3,298.19,930.14,299.23,929.82,300.23 z"/><path d="M993.7,276.86c0.14-0.09,0.27-0.21,0.37-0.37c0.1-0.16,0.17-0.37,0.22-0.61c0.05-0.25,0.07-0.53,0.07-0.85 c0-0.35-0.02-0.65-0.07-0.91c-0.05-0.26-0.13-0.48-0.22-0.65c-0.1-0.17-0.22-0.3-0.37-0.39c-0.15-0.09-0.31-0.13-0.48-0.13h-33.16 c-0.2,0-0.37,0.04-0.5,0.13c-0.14,0.09-0.25,0.22-0.35,0.39c-0.1,0.17-0.17,0.39-0.22,0.65c-0.05,0.26-0.07,0.56-0.07,0.91 c0,0.32,0.02,0.61,0.07,0.85c0.05,0.25,0.12,0.45,0.22,0.61c0.1,0.16,0.22,0.28,0.35,0.37c0.13,0.09,0.3,0.13,0.5,0.13h14.32 v43.22c0,0.15,0.04,0.29,0.11,0.41c0.07,0.13,0.19,0.22,0.37,0.3c0.17,0.07,0.41,0.14,0.71,0.19c0.3,0.05,0.66,0.07,1.07,0.07 c0.42,0,0.78-0.02,1.08-0.07c0.29-0.05,0.53-0.11,0.71-0.19c0.17-0.08,0.29-0.17,0.37-0.3c0.07-0.12,0.11-0.26,0.11-0.41v-43.22 h14.32C993.39,276.99,993.55,276.95,993.7,276.86z"/><path d="M1020.11,290.03c-1.31-1.55-2.95-2.73-4.92-3.54c-1.97-0.82-4.26-1.22-6.88-1.22c-2.75,0-5.15,0.46-7.2,1.37 c-2.05,0.92-3.77,2.2-5.14,3.84c-1.37,1.64-2.4,3.59-3.08,5.84c-0.68,2.25-1.02,4.71-1.02,7.38c0,2.77,0.33,5.26,0.99,7.46 c0.66,2.2,1.64,4.07,2.96,5.62c1.32,1.55,2.97,2.73,4.93,3.56c1.97,0.83,4.26,1.24,6.88,1.24c2.72,0,5.11-0.46,7.16-1.39 c2.05-0.93,3.77-2.22,5.14-3.88c1.37-1.65,2.41-3.61,3.1-5.86c0.69-2.25,1.04-4.71,1.04-7.38c0-2.74-0.34-5.22-1-7.42 C1022.41,293.45,1021.42,291.58,1020.11,290.03z M1018.74,309.12c-0.44,1.73-1.13,3.23-2.06,4.49c-0.93,1.26-2.12,2.25-3.58,2.97 c-1.46,0.72-3.19,1.07-5.19,1.07c-2.18,0-4-0.38-5.45-1.15c-1.46-0.77-2.62-1.8-3.49-3.12c-0.86-1.31-1.48-2.84-1.85-4.58 c-0.37-1.74-0.56-3.58-0.56-5.51c0-2,0.22-3.87,0.67-5.6c0.44-1.73,1.13-3.23,2.06-4.51c0.93-1.27,2.12-2.27,3.58-2.99 c1.46-0.72,3.19-1.08,5.2-1.08c2.18,0,3.99,0.39,5.45,1.17c1.46,0.78,2.62,1.83,3.49,3.15c0.86,1.32,1.48,2.85,1.85,4.58 c0.37,1.73,0.56,3.55,0.56,5.45C1019.41,305.51,1019.19,307.39,1018.74,309.12z"/><path d="M1060.6,269.68c-0.16-0.07-0.38-0.13-0.67-0.18c-0.28-0.05-0.65-0.07-1.09-0.07c-0.42,0-0.77,0.02-1.06,0.07 c-0.29,0.05-0.51,0.11-0.69,0.18c-0.17,0.07-0.29,0.18-0.35,0.3c-0.06,0.13-0.09,0.26-0.09,0.41v20.22 c-1.63-1.76-3.29-3.08-4.97-3.99c-1.68-0.9-3.54-1.35-5.56-1.35c-2.35,0-4.41,0.43-6.19,1.3c-1.78,0.86-3.28,2.1-4.49,3.71 c-1.21,1.61-2.13,3.56-2.75,5.84c-0.62,2.29-0.93,4.85-0.93,7.7c0,2.42,0.25,4.72,0.74,6.88c0.49,2.17,1.28,4.05,2.35,5.66 c1.08,1.61,2.47,2.88,4.17,3.82c1.71,0.94,3.77,1.41,6.2,1.41c2.25,0,4.33-0.55,6.23-1.65c1.9-1.1,3.75-2.62,5.53-4.55v4.82 c0,0.17,0.04,0.32,0.13,0.44c0.09,0.13,0.21,0.23,0.37,0.3c0.16,0.07,0.37,0.13,0.63,0.17c0.26,0.04,0.59,0.06,0.98,0.06 c0.37,0,0.68-0.02,0.93-0.06c0.25-0.04,0.45-0.09,0.61-0.17c0.16-0.07,0.27-0.17,0.33-0.3c0.06-0.12,0.09-0.27,0.09-0.44v-49.82 c0-0.15-0.04-0.28-0.11-0.41C1060.88,269.86,1060.76,269.76,1060.6,269.68z M1056.65,310.64c-1.09,1.34-2.11,2.45-3.06,3.36 c-0.96,0.9-1.87,1.64-2.77,2.21c-0.89,0.57-1.75,0.98-2.6,1.22c-0.84,0.25-1.71,0.37-2.6,0.37c-1.78,0-3.26-0.41-4.45-1.24 c-1.19-0.83-2.14-1.93-2.86-3.3c-0.72-1.37-1.22-2.94-1.52-4.69c-0.29-1.76-0.44-3.56-0.44-5.41c0-1.73,0.17-3.44,0.52-5.12 c0.34-1.68,0.9-3.19,1.67-4.52c0.77-1.34,1.75-2.41,2.97-3.23c1.21-0.81,2.67-1.22,4.38-1.22c1.88,0,3.68,0.59,5.4,1.78 c1.72,1.19,3.51,2.91,5.36,5.16V310.64z"/><path d="M1094.25,288.49c-0.98-1.04-2.26-1.84-3.84-2.39c-1.58-0.56-3.52-0.84-5.82-0.84c-1.19,0-2.37,0.11-3.56,0.33 c-1.19,0.22-2.3,0.51-3.32,0.87c-1.02,0.36-1.94,0.75-2.73,1.17c-0.79,0.42-1.34,0.79-1.65,1.09c-0.31,0.31-0.5,0.62-0.57,0.93 c-0.07,0.31-0.11,0.72-0.11,1.24c0,0.29,0.02,0.55,0.06,0.76c0.04,0.21,0.1,0.39,0.19,0.52c0.09,0.14,0.19,0.23,0.31,0.28 c0.12,0.05,0.26,0.07,0.41,0.07c0.25,0,0.66-0.18,1.24-0.54c0.58-0.36,1.32-0.76,2.21-1.21c0.89-0.45,1.93-0.85,3.12-1.21 c1.19-0.36,2.52-0.54,4.01-0.54c1.53,0,2.83,0.18,3.9,0.56c1.06,0.37,1.93,0.93,2.6,1.67c0.67,0.74,1.15,1.66,1.45,2.76 c0.3,1.1,0.45,2.37,0.45,3.8v2.89h-5.35c-2.42,0-4.62,0.23-6.6,0.69c-1.98,0.46-3.67,1.14-5.08,2.06 c-1.41,0.92-2.5,2.06-3.26,3.43c-0.77,1.37-1.15,2.99-1.15,4.84c0,1.51,0.26,2.87,0.78,4.08c0.52,1.21,1.26,2.24,2.23,3.1 c0.96,0.86,2.15,1.51,3.54,1.97c1.4,0.46,2.98,0.69,4.73,0.69c1.96,0,3.84-0.44,5.66-1.34c1.82-0.89,3.48-2.15,4.99-3.78v3.75 c0,0.25,0.08,0.44,0.24,0.57c0.16,0.14,0.39,0.24,0.69,0.3c0.3,0.06,0.66,0.09,1.07,0.09c0.44,0,0.8-0.03,1.06-0.09 c0.26-0.06,0.47-0.16,0.63-0.3c0.16-0.14,0.24-0.33,0.24-0.57v-22.7c0-1.93-0.21-3.65-0.63-5.17 C1095.92,290.81,1095.22,289.53,1094.25,288.49z M1092.56,312.27c-1.71,1.88-3.32,3.27-4.85,4.17c-1.52,0.9-3.16,1.35-4.91,1.35 c-2.23,0-3.95-0.57-5.18-1.72c-1.22-1.15-1.84-2.69-1.84-4.62c0-1.11,0.22-2.1,0.65-2.97c0.43-0.87,1.09-1.61,1.99-2.23 c0.89-0.62,2-1.09,3.34-1.41c1.34-0.32,2.9-0.48,4.68-0.48h6.12V312.27z"/><path d="M1132.64,285.75c-0.31-0.05-0.7-0.07-1.17-0.07c-0.49,0-0.92,0.02-1.26,0.06c-0.34,0.04-0.62,0.11-0.84,0.22 c-0.21,0.11-0.38,0.34-0.5,0.69l-10.31,29.31h-0.14l-10.5-29.31c-0.07-0.17-0.16-0.32-0.24-0.44c-0.09-0.12-0.22-0.22-0.41-0.3 c-0.19-0.07-0.44-0.13-0.76-0.17c-0.32-0.04-0.76-0.06-1.3-0.06c-0.52,0-0.94,0.02-1.24,0.06c-0.31,0.04-0.53,0.12-0.67,0.24 c-0.14,0.12-0.21,0.29-0.21,0.5c0,0.21,0.06,0.49,0.18,0.84l12.21,32.75c0.05,0.17,0.15,0.35,0.3,0.52 c0.15,0.17,0.32,0.3,0.52,0.37l-4.75,11.91c-0.13,0.3-0.17,0.55-0.15,0.76c0.02,0.21,0.12,0.38,0.28,0.52 c0.16,0.14,0.39,0.23,0.69,0.28c0.29,0.05,0.67,0.07,1.11,0.07c0.86,0,1.49-0.09,1.89-0.28c0.39-0.19,0.66-0.41,0.78-0.69 l4.67-12.58l12.54-33.64c0.12-0.32,0.19-0.59,0.19-0.8c0-0.21-0.07-0.38-0.22-0.5C1133.18,285.88,1132.95,285.8,1132.64,285.75z"/><path d="M1139.23,314.09c-1.21,0-2.05,0.23-2.52,0.7c-0.47,0.47-0.71,1.44-0.71,2.9c0,1.43,0.23,2.38,0.69,2.84 c0.46,0.46,1.27,0.69,2.43,0.69c1.21,0,2.05-0.24,2.52-0.71c0.47-0.47,0.71-1.44,0.71-2.89c0-1.43-0.23-2.38-0.69-2.84 C1141.2,314.32,1140.39,314.09,1139.23,314.09z"/></g></g></svg>